,
Brought to you by  http://www.scenetime.com/signup.php
 
 Hottest scene tracker on the net !!!   
 
No fake torrents from scenebalance 
shame on those who comment fake before downloading my torrents

    seed back for speed


 



...................................NFO:.................................................[img]http://img29.imageshack.us/img29/9619/unknownmovieposter.jpg[/img]

[color=blue][size=5][b]Unknown.2011.R5.DVDRip.XVID.AC3.HQ.Hive-CM8[/b][/size][/color]


[b]Thx Hive

CM8 Doing It Right The First Time :D

Source: Russian DVD-5 with eng studio audio on it

Encode:

DVD-Quality was a good one, english subs were already hardcoded for the foreign parts.
Again no Russian 5.1 audio on it so cant do a 5.1 version either.
Added bit brightness,sharpness,rgb,denoise.
got really nice

enjoy

Video: 720x304 @bitrate 1800 2pass
Audio: English AC3 2.0 Stereo
Sample: yes included
Subs: english hardcoded for foreign parts only (were already on dvd)[/b]


[url]http://www.imdb.com/title/tt1401152/[/url]


General
Complete name                    : Unknown.2011.R5.DVDRip.XVID.AC3.HQ.Hive-CM8.avi
Format                           : AVI
Format/Info                      : Audio Video Interleave
File size                        : 1.57 GiB
Duration                         : 1h 48mn
Overall bit rate                 : 2 066 Kbps
Writing application              : Nandub v1.0rc2
Writing library                  : Nandub build 1853/release

Video
ID                               : 0
Format                           : MPEG-4 Visual
Format profile                   : Advanced Simple@L5
Format settings, BVOP            : 2
Format settings, QPel            : Yes
Format settings, GMC             : No warppoints
Format settings, Matrix          : Default (H.263)
Muxing mode                      : Packed bitstream
Codec ID                         : XVID
Codec ID/Hint                    : XviD
Duration                         : 1h 48mn
Bit rate                         : 1 800 Kbps
Width                            : 720 pixels
Height                           : 304 pixels
Display aspect ratio             : 2.35:1
Frame rate                       : 25.000 fps
Color space                      : YUV
Chroma subsampling               : 4:2:0
Bit depth                        : 8 bits
Scan type                        : Progressive
Compression mode                 : Lossy
Bits/(Pixel*Frame)               : 0.329
Stream size                      : 1.36 GiB (87%)
Writing library                  : XviD 1.2.1 (UTC 2008-12-04)

Audio
ID                               : 1
Format                           : AC-3
Format/Info                      : Audio Coding 3
Mode extension                   : CM (complete main)
Codec ID                         : 2000
Duration                         : 1h 48mn
Bit rate mode                    : Constant
Bit rate                         : 256 Kbps
Channel(s)                       : 2 channels
Channel positions                : Front: L R
Sampling rate                    : 48.0 KHz
Bit depth                        : 16 bits
Compression mode                 : Lossy
Stream size                      : 199 MiB (12%)
Alignment                        : Split accross interleaves
Interleave, duration             : 40 ms (1.00 video frame)
Interleave, preload duration     : 500 ms



Liam Neeson	 ... 	Dr. Martin Harris
Diane Kruger	... 	Gina
January Jones	... 	Elizabeth Harris
Aidan Quinn	... 	The Other Martin Harris
Bruno Ganz	... 	Ernst Jrgen
Frank Langella	... 	Rodney Cole


A man awakens from a coma, only to discover that someone has taken on his identity and that
no one, (not even his wife), believes him. With the help of a young woman, he sets out to prove who he is.  

 

[img]http://img810.imageshack.us/img810/293/78943110.png[/img]
[img]http://img29.imageshack.us/img29/3175/unun.png[/img]
[img]http://img59.imageshack.us/img59/3378/ununun.png[/img]
[img]http://img204.imageshack.us/img204/462/unununun.png[/img]
[img]http://img135.imageshack.us/img135/6708/ununununun.png[/img]
[img]http://img84.imageshack.us/img84/7217/unununuunnun.png[/img]
[img]http://img143.imageshack.us/img143/2559/unununuununnun.png[/img]
[img]http://img24.imageshack.us/img24/868/unununuunununnun.png[/img]


dvdcover:

[img]http://img844.imageshack.us/img844/9669/unknown2011moviecover13.jpg[/img]





Greetz

ViSiON,SANTi,MAGNET,THC,T0XiC,iNK,LKRG,IMAGiNE,WBZ,FLAWL3SS,NOVA
Vik,OneTwo,Rapeseed,D2U,SAFC,goldadvance,MEMORY100,KaN1vE,Unevano,Pinnz,Wayne,Mr Hive
and all P2P groups 
Great Work Guys :D

FYS

CM8@hushmail.com